# xmcd CD database file
#
# Track frame offsets:
#	150
#	18380
#	43212
#	61357
#	79550
#
# Disc length: 1514 seconds
#
# Revision: 2
# Processed by: cddbd v1.4b41PL1 Copyright (c) Steve Scherf et al.
# Submitted via: Feurio! 1.50.2ß - http://www.feurio.com
#
DISCID=3705e805
DTITLE=Andreas Elsholz - Gib Mir Noch Zeit
DYEAR=1900
DGENRE=
TTITLE0=Gib Mir Noch Zeit, radio edit
TTITLE1=Gib Mir Noch Zeit, club mix
TTITLE2=Gib Mir Noch Zeit, andreas` mix
TTITLE3=Gib Mir Noch Zeit, instrumental
TTITLE4=Fakten, Fans Und Träume
EXTD=
EXTT0=
EXTT1=
EXTT2=
EXTT3=
EXTT4=
PLAYORDER=
